<svg width="1091" height="325" viewBox="0 0 1091 325" fill="none" xmlns="http://www.w3.org/2000/svg">
<rect x="298.685" y="219.645" width="72.6482" height="13.9493" rx="6.97465" transform="rotate(-15 298.685 219.645)" fill="#EAEAEA"/>
<path d="M314.312 212.45L501.718 162.235C507.06 160.803 512.551 163.973 513.982 169.316C515.414 174.658 512.244 180.148 506.902 181.58L319.495 231.795L314.312 212.45Z" fill="#22C6B0"/>
<path d="M312.241 233.739L296.523 237.951C291.181 239.382 285.69 236.212 284.259 230.87C282.827 225.528 285.997 220.037 291.339 218.605L307.057 214.394L312.241 233.739Z" fill="#22C6B0"/>
<path d="M252.605 227.744C250.491 241.389 237.717 250.736 224.073 248.623L34.7477 219.296C21.1033 217.182 11.7557 204.408 13.8692 190.764L16.534 173.56L255.27 210.541L252.605 227.744Z" fill="#22C6B0"/>
<path d="M272.442 230.184C270.328 243.828 257.554 253.176 243.909 251.062L61.5632 222.816C47.9188 220.703 38.5712 207.929 40.6847 194.284L43.2528 177.705L275.01 213.605L272.442 230.184Z" fill="#EAEAEA"/>
<path d="M289.774 233.782C287.66 247.427 274.886 256.774 261.241 254.661L71.9163 225.334C58.2719 223.221 48.9243 210.446 51.0378 196.802L53.7256 179.45L292.461 216.431L289.774 233.782Z" fill="#22C6B0"/>
<path d="M251.265 147.563C255.918 164.928 245.265 161.067 233.256 164.285C221.248 167.503 215.249 168.917 213.318 161.712C211.388 154.507 211.513 155.886 224.895 144.99C233.256 139.201 249.334 140.357 251.265 147.563Z" fill="#22C6B0"/>
<path d="M174.905 111.811C174.905 118.56 170.096 124.031 166.544 124.031C162.992 124.031 162.685 122.419 162.685 115.67C162.685 108.921 166.208 101.521 169.76 101.521C173.312 101.521 174.905 105.062 174.905 111.811Z" fill="#22C6B0"/>
<path d="M186.272 190.29C179.624 191.457 173.404 187.666 172.79 184.168C172.176 180.669 173.71 180.088 180.358 178.921C187.005 177.754 194.903 179.944 195.518 183.443C196.132 186.941 192.919 189.123 186.272 190.29Z" fill="#22C6B0"/>
<path d="M254.658 78.3666C254.658 81.5825 251.962 90.5868 243.081 90.5868C234.201 90.5868 222.5 82.2256 217.998 74.5076C219.927 69.3623 229.056 61.6443 237.936 61.6443C246.816 61.6443 254.658 69.4864 254.658 78.3666Z" fill="#22C6B0"/>
<path d="M126.025 142.683C126.025 151.919 120.88 152.974 109.946 159.406C103.514 149.115 88.7212 151.919 88.7212 142.683C96.4392 134.322 98.2238 128.534 109.946 128.534C121.668 128.534 126.025 133.448 126.025 142.683Z" fill="#22C6B0"/>
<path d="M141.22 14.0596C156.96 5.37333 155.77 16.6417 161.777 27.5267C167.784 38.4116 170.597 43.8952 164.066 47.4993C157.535 51.1034 158.844 50.651 145.054 40.2758C137.427 33.5489 134.689 17.6636 141.22 14.0596Z" fill="#22C6B0"/>
<path d="M124.847 96.7692C131.399 95.1488 137.865 98.5037 138.718 101.952C139.57 105.4 138.079 106.085 131.527 107.705C124.976 109.326 116.946 107.683 116.093 104.235C115.24 100.786 118.296 98.3896 124.847 96.7692Z" fill="#22C6B0"/>
<path d="M198.302 66.8936C201.031 73.0664 198.844 80.0148 195.595 81.451C192.347 82.8872 191.414 81.5368 188.685 75.364C185.957 69.1912 186.186 60.9982 189.435 59.562C192.684 58.1258 195.573 60.7209 198.302 66.8936Z" fill="#22C6B0"/>
<path d="M69 35.6833C72.1218 34.9113 85.7434 27.0628 87.8755 35.6833C90.0075 44.3038 94.2868 48.7765 87.8755 55C82.4174 54.3623 63.1469 56.2475 61.0148 47.6269C58.8828 39.0064 60.3795 37.8154 69 35.6833Z" fill="#22C6B0"/>
<path d="M175.508 146C184.474 143.783 175.508 148.402 186.646 148.402C178.2 157.116 184.474 170.803 175.508 173.021C165.539 167.536 159.491 167.193 156.677 155.814C169.5 154.5 166.543 148.217 175.508 146Z" fill="#22C6B0"/>
<path d="M358.135 104.25C358.835 103.25 359.835 101.5 361.135 99C364.335 93.3 366.235 90.45 366.835 90.45C367.535 90.45 367.885 90.85 367.885 91.65C367.885 96.55 365.335 102.75 360.235 110.25C351.035 123.75 338.785 130.5 323.485 130.5C319.185 130.5 315.235 129.5 311.635 127.5C308.035 125.5 305.185 122.95 303.085 119.85C298.785 113.55 296.635 106.95 296.635 100.05C296.635 82.65 301.135 68.65 310.135 58.05C319.235 47.35 329.985 42 342.385 42C347.085 42 350.935 43.4 353.935 46.2C356.935 48.9 358.435 52.35 358.435 56.55C358.435 60.75 357.385 64.65 355.285 68.25C353.185 71.85 350.635 73.65 347.635 73.65C344.735 73.65 343.285 72.85 343.285 71.25C343.285 69.45 344.235 67.4 346.135 65.1C348.135 62.8 349.135 60.5 349.135 58.2C349.135 51.1 345.335 47.55 337.735 47.55C330.235 47.55 323.435 52.6 317.335 62.7C311.235 72.8 308.185 83.2 308.185 93.9C308.185 101.3 310.285 107.9 314.485 113.7C318.685 119.4 324.585 122.25 332.185 122.25C341.185 122.25 349.835 116.25 358.135 104.25ZM405.401 96.45C409.401 95.15 412.151 94.05 413.651 93.15C415.251 92.15 416.451 91.4 417.251 90.9L419.051 89.85C419.551 89.55 419.951 89.4 420.251 89.4C421.051 89.4 421.451 89.85 421.451 90.75C421.451 91.65 419.901 93.25 416.801 95.55C413.701 97.75 409.851 99.75 405.251 101.55C404.551 109.95 401.901 116.75 397.301 121.95C392.701 127.15 386.151 129.75 377.651 129.75C371.451 129.75 366.701 127.3 363.401 122.4C360.101 117.4 358.451 111.6 358.451 105C358.451 98.3 360.401 92 364.301 86.1C368.301 80.2 373.401 77.25 379.601 77.25C382.401 75.25 385.701 74.25 389.501 74.25C393.401 74.25 397.001 76.3 400.301 80.4C403.601 84.5 405.301 89.85 405.401 96.45ZM395.651 104.1L390.251 104.4C385.651 104.4 381.751 103.05 378.551 100.35C375.351 97.55 373.751 94.5 373.751 91.2C373.751 87.9 374.301 85.05 375.401 82.65C371.101 86.05 368.951 92.75 368.951 102.75C368.951 107.55 369.951 112.15 371.951 116.55C373.951 120.85 377.101 123 381.401 123C385.701 123 389.051 121.2 391.451 117.6C393.851 113.9 395.251 109.4 395.651 104.1ZM386.351 79.2C384.751 79.2 383.501 79.95 382.601 81.45C381.701 82.85 381.251 84.4 381.251 86.1C381.251 89.8 382.501 92.8 385.001 95.1C387.601 97.4 390.601 98.55 394.001 98.55H395.801C395.601 93.65 394.751 89.2 393.251 85.2C391.851 81.2 389.551 79.2 386.351 79.2ZM460.04 96.45C464.04 95.15 466.79 94.05 468.29 93.15C469.89 92.15 471.09 91.4 471.89 90.9L473.69 89.85C474.19 89.55 474.59 89.4 474.89 89.4C475.69 89.4 476.09 89.85 476.09 90.75C476.09 91.65 474.54 93.25 471.44 95.55C468.34 97.75 464.49 99.75 459.89 101.55C459.19 109.95 456.54 116.75 451.94 121.95C447.34 127.15 440.79 129.75 432.29 129.75C426.09 129.75 421.34 127.3 418.04 122.4C414.74 117.4 413.09 111.6 413.09 105C413.09 98.3 415.04 92 418.94 86.1C422.94 80.2 428.04 77.25 434.24 77.25C437.04 75.25 440.34 74.25 444.14 74.25C448.04 74.25 451.64 76.3 454.94 80.4C458.24 84.5 459.94 89.85 460.04 96.45ZM450.29 104.1L444.89 104.4C440.29 104.4 436.39 103.05 433.19 100.35C429.99 97.55 428.39 94.5 428.39 91.2C428.39 87.9 428.94 85.05 430.04 82.65C425.74 86.05 423.59 92.75 423.59 102.75C423.59 107.55 424.59 112.15 426.59 116.55C428.59 120.85 431.74 123 436.04 123C440.34 123 443.69 121.2 446.09 117.6C448.49 113.9 449.89 109.4 450.29 104.1ZM440.99 79.2C439.39 79.2 438.14 79.95 437.24 81.45C436.34 82.85 435.89 84.4 435.89 86.1C435.89 89.8 437.14 92.8 439.64 95.1C442.24 97.4 445.24 98.55 448.64 98.55H450.44C450.24 93.65 449.39 89.2 447.89 85.2C446.49 81.2 444.19 79.2 440.99 79.2ZM516.029 134.25L520.079 133.8C520.879 133.8 521.279 134.2 521.279 135C521.279 136.4 520.329 137.45 518.429 138.15C516.529 138.85 514.379 139.2 511.979 139.2C507.479 139.2 503.679 137.4 500.579 133.8C497.579 130.2 493.379 123.55 487.979 113.85C486.679 111.75 486.029 110.15 486.029 109.05C486.029 107.55 488.129 105.8 492.329 103.8C499.129 100.3 502.529 95.9 502.529 90.6C502.529 89.1 501.979 87.85 500.879 86.85C499.879 85.75 498.529 85.2 496.829 85.2C494.429 85.2 491.579 88.05 488.279 93.75C484.979 99.35 482.729 104.65 481.529 109.65C480.429 114.55 479.879 119.85 479.879 125.55C479.879 128.35 479.079 129.75 477.479 129.75C475.179 129.75 472.979 129.45 470.879 128.85C468.779 128.15 467.729 127.3 467.729 126.3C467.729 125.2 468.129 120.45 468.929 112.05C469.729 103.55 470.179 97.45 470.279 93.75C470.679 73.35 471.879 57.75 473.879 46.95C474.179 46.05 475.529 44.5 477.929 42.3C480.429 40.1 482.429 39 483.929 39C485.429 39 486.129 40.9 486.029 44.7C486.029 48.4 485.229 56.4 483.629 68.7C482.029 81 481.029 92.25 480.629 102.45C482.429 96.05 485.279 90 489.179 84.3C493.179 78.6 497.179 75.75 501.179 75.75C507.979 75.75 511.379 79.05 511.379 85.65C511.379 90.05 510.079 94.05 507.479 97.65C504.879 101.15 501.379 104 496.979 106.2C496.079 106.6 495.629 107.05 495.629 107.55C495.629 108.05 495.779 108.55 496.079 109.05C502.379 120.15 507.729 127.95 512.129 132.45C513.329 133.65 514.629 134.25 516.029 134.25ZM524.695 55.65C524.695 53.85 525.645 52.3 527.545 51C529.445 49.7 531.145 49.05 532.645 49.05C535.345 49.05 536.695 50.6 536.695 53.7C536.695 56.8 535.895 59.5 534.295 61.8C532.695 64 530.445 65.1 527.545 65.1C525.645 65.1 524.695 61.95 524.695 55.65ZM529.045 129.75C525.145 129.75 522.195 128.95 520.195 127.35C519.495 126.65 519.145 124.15 519.145 119.85C519.145 115.55 519.445 108.4 520.045 98.4C520.745 88.3 521.345 82.85 521.845 82.05C522.345 81.25 523.895 79.75 526.495 77.55C529.095 75.35 531.095 74.25 532.495 74.25C533.995 74.25 534.745 76.15 534.745 79.95C534.745 80.95 534.445 82.9 533.845 85.8C533.345 88.7 532.745 90.8 532.045 92.1C530.745 95.4 530.095 104.05 530.095 118.05C530.095 120.75 530.395 122.1 530.995 122.1C532.695 122 535.045 119.9 538.045 115.8C541.045 111.6 543.995 106.25 546.895 99.75C549.895 93.25 551.695 90 552.295 90C552.995 90 553.345 90.4 553.345 91.2C553.345 94 551.895 98.45 548.995 104.55C541.095 121.35 534.445 129.75 529.045 129.75ZM557.065 120.9L557.215 125.55C557.215 128.35 556.415 129.75 554.815 129.75C552.415 129.75 550.115 129.45 547.915 128.85C545.715 128.15 544.615 127.25 544.615 126.15C544.615 124.95 544.865 121 545.365 114.3C545.965 107.5 546.265 102.4 546.265 99V90.15C546.265 85.35 546.765 82.45 547.765 81.45C548.765 80.45 550.515 79 553.015 77.1C555.615 75.2 557.465 74.25 558.565 74.25C559.765 74.25 560.515 74.45 560.815 74.85C561.115 75.25 561.265 76 561.265 77.1C561.265 82.4 560.265 87.4 558.265 92.1C557.765 97.8 557.515 101.75 557.515 103.95C557.915 103.35 560.015 99.95 563.815 93.75C567.615 87.55 570.815 83 573.415 80.1C576.115 77.2 578.515 75.75 580.615 75.75C582.715 75.75 584.565 76.45 586.165 77.85C587.865 79.25 588.715 81 588.715 83.1C588.715 87.5 588.215 94 587.215 102.6C586.315 111.1 585.865 116.5 585.865 118.8C585.865 121 586.165 122.1 586.765 122.1C588.465 122 590.815 119.9 593.815 115.8C596.815 111.6 599.765 106.25 602.665 99.75C605.665 93.25 607.465 90 608.065 90C608.765 90 609.115 90.4 609.115 91.2C609.115 94 607.665 98.45 604.765 104.55C596.865 121.35 590.215 129.75 584.815 129.75C580.915 129.75 577.965 128.95 575.965 127.35C575.265 126.65 574.915 124.85 574.915 121.95C574.915 118.95 575.165 114.15 575.665 107.55C576.265 100.85 576.565 95.85 576.565 92.55C576.565 89.25 575.965 87.6 574.765 87.6C573.665 87.6 570.665 91.05 565.765 97.95C560.865 104.75 558.265 109.1 557.965 111C557.365 114.5 557.065 117.8 557.065 120.9ZM635.379 106.05C632.279 114.25 629.379 120.25 626.679 124.05C624.079 127.85 620.629 129.75 616.329 129.75C612.029 129.75 608.379 127.9 605.379 124.2C602.479 120.5 601.029 114.6 601.029 106.5C601.029 98.4 603.279 91.25 607.779 85.05C612.379 78.85 618.379 75.75 625.779 75.75C627.279 75.75 629.079 76.4 631.179 77.7C633.279 78.9 635.129 80.4 636.729 82.2C637.029 81.2 638.479 79.65 641.079 77.55C643.679 75.35 645.679 74.25 647.079 74.25C648.579 74.25 649.329 76.4 649.329 80.7C649.329 85 648.429 88.8 646.629 92.1C645.629 98.8 645.079 105 644.979 110.7C654.779 98.3 659.979 91.75 660.579 91.05C661.279 90.35 661.879 90 662.379 90C663.379 90 663.879 90.5 663.879 91.5C663.879 92.1 663.679 92.75 663.279 93.45C660.079 98.15 653.779 106.4 644.379 118.2C643.779 130.1 643.379 138.2 643.179 142.5C642.679 155.2 640.879 164.1 637.779 169.2C634.779 174.4 629.379 177 621.579 177C618.179 177 614.979 175.95 611.979 173.85C609.079 171.85 607.629 168.3 607.629 163.2C607.629 158.2 609.529 153.05 613.329 147.75C617.229 142.45 624.279 134.3 634.479 123.3L635.379 106.05ZM624.879 81.15C622.079 81.15 619.079 83.35 615.879 87.75C612.779 92.05 611.229 97.05 611.229 102.75C611.229 108.35 612.029 112.95 613.629 116.55C615.329 120.05 617.429 121.8 619.929 121.8C622.429 121.8 624.829 119.75 627.129 115.65C629.429 111.55 632.379 104.5 635.979 94.5C636.179 91.1 636.279 88.95 636.279 88.05C635.479 86.55 633.829 85.05 631.329 83.55C628.829 81.95 626.679 81.15 624.879 81.15ZM634.029 130.35C622.629 142.65 616.929 152.5 616.929 159.9C616.929 163.3 617.529 166.1 618.729 168.3C619.929 170.5 621.579 171.6 623.679 171.6C626.879 171.6 629.129 169.85 630.429 166.35C631.729 162.85 632.679 155.75 633.279 145.05L634.029 130.35ZM769.373 135.45L774.323 134.25C775.923 134.25 776.723 135.05 776.723 136.65C776.623 139.25 775.273 141.55 772.673 143.55C770.173 145.65 767.323 146.7 764.123 146.7C760.923 146.7 758.373 145.15 756.473 142.05C753.773 137.55 751.223 129.5 748.823 117.9C747.723 112.3 746.423 107.7 744.923 104.1C742.223 105 739.373 105.45 736.373 105.45C733.373 105.45 730.723 104.85 728.423 103.65C726.223 102.35 725.123 100.8 725.123 99C725.323 94.4 729.023 92.1 736.223 92.1C739.723 92.1 743.473 93.65 747.473 96.75C753.673 92.05 756.773 85.5 756.773 77.1C756.773 72.1 755.823 67.7 753.923 63.9C752.023 60 749.523 56.95 746.423 54.75C740.323 50.45 733.523 48.3 726.023 48.3C725.823 50.5 725.473 54 724.973 58.8C723.973 68.8 723.373 76.55 723.173 82.05L722.723 105.75C722.723 123.95 719.123 133.05 711.923 133.05C707.323 133.05 705.023 131.1 705.023 127.2C705.023 126.2 705.673 124.5 706.973 122.1C708.373 119.7 709.373 116.95 709.973 113.85C710.573 110.65 711.223 101.4 711.923 86.1C712.623 70.7 713.573 58.6 714.773 49.8C709.473 51.3 705.123 53.6 701.723 56.7C698.423 59.8 696.773 63.45 696.773 67.65C696.773 70.05 696.223 72 695.123 73.5C694.023 74.9 692.673 75.6 691.073 75.6C688.173 75.6 686.723 74.05 686.723 70.95C686.723 63.95 689.523 58.2 695.123 53.7C700.823 49.1 707.823 45.8 716.123 43.8C718.123 37.1 720.923 33.75 724.523 33.75C725.923 33.75 726.623 35.35 726.623 38.55C726.623 39.25 726.523 40.5 726.323 42.3C727.423 42.1 729.523 42 732.623 42C735.723 42 739.223 42.45 743.123 43.35C747.023 44.25 750.923 45.8 754.823 48C758.823 50.1 762.023 53.35 764.423 57.75C766.823 62.05 768.023 67.1 768.023 72.9C768.023 78.7 766.523 84.1 763.523 89.1C760.523 94.1 756.623 98.1 751.823 101.1C755.223 105.3 757.873 110.45 759.773 116.55C761.773 122.65 763.623 127.3 765.323 130.5C767.023 133.8 768.373 135.45 769.373 135.45ZM731.273 97.2C731.273 98 731.973 98.7 733.373 99.3C734.773 99.9 736.223 100.2 737.723 100.2C739.323 100.2 740.773 99.95 742.073 99.45C740.073 97.15 737.773 96 735.173 96C732.573 96 731.273 96.4 731.273 97.2ZM792.62 129.75C787.02 129.75 782.57 127.65 779.27 123.45C775.97 119.15 774.32 114.3 774.32 108.9C774.32 98 776.62 89.75 781.22 84.15C785.82 78.55 791.77 75.75 799.07 75.75C802.47 75.75 805.27 76.7 807.47 78.6C809.67 80.4 810.77 82.9 810.77 86.1C810.77 92.1 808.22 97.15 803.12 101.25C798.12 105.25 791.97 107.35 784.67 107.55C785.07 111.45 786.37 114.85 788.57 117.75C790.87 120.55 793.52 121.95 796.52 121.95C799.52 121.95 802.22 121.25 804.62 119.85C807.02 118.45 809.22 116.45 811.22 113.85C815.42 108.35 819.02 102.1 822.02 95.1C822.82 93.3 823.42 92 823.82 91.2C824.32 90.4 824.82 90 825.32 90C825.92 90 826.22 90.4 826.22 91.2C826.22 96.2 823.17 103.7 817.07 113.7C810.47 124.4 802.32 129.75 792.62 129.75ZM784.67 103.95C790.57 102.95 794.87 101.05 797.57 98.25C800.37 95.45 801.77 91.8 801.77 87.3C801.77 82.8 800.32 80.55 797.42 80.55C793.92 80.55 790.97 83 788.57 87.9C786.17 92.7 784.87 98.05 784.67 103.95ZM822.916 82.35C824.016 81.05 825.766 79.4 828.166 77.4C830.566 75.3 832.466 74.25 833.866 74.25C835.266 74.25 835.966 76.25 835.966 80.25C835.966 84.15 834.916 88 832.816 91.8C832.416 93.6 832.116 96.2 831.916 99.6C834.816 91.7 837.716 85.75 840.616 81.75C843.516 77.75 847.016 75.75 851.116 75.75C855.316 75.75 858.966 77.65 862.066 81.45C865.166 85.15 866.716 91.05 866.716 99.15C866.716 107.15 864.416 114.25 859.816 120.45C855.316 126.65 849.366 129.75 841.966 129.75C838.166 129.75 834.316 128.35 830.416 125.55C830.416 144.65 829.316 159.2 827.116 169.2C826.916 170.1 825.566 171.6 823.066 173.7C820.666 175.9 818.916 177 817.816 177C816.616 177 815.766 176.2 815.266 174.6C814.766 173 814.516 171.5 814.516 170.1C814.516 159.8 816.616 146.55 820.816 130.35C821.516 120.95 821.966 110.65 822.166 99.45C822.466 88.25 822.716 82.55 822.916 82.35ZM842.866 124.35C845.766 124.35 848.766 122.35 851.866 118.35C854.966 114.25 856.516 109.25 856.516 103.35C856.516 97.35 855.666 92.6 853.966 89.1C852.366 85.5 850.166 83.7 847.366 83.7C842.566 83.7 837.116 93.65 831.016 113.55C830.816 116.35 830.716 118.55 830.716 120.15C833.516 122.95 837.566 124.35 842.866 124.35ZM919.268 96.45C923.268 95.15 926.018 94.05 927.518 93.15C929.118 92.15 930.318 91.4 931.118 90.9L932.918 89.85C933.418 89.55 933.818 89.4 934.118 89.4C934.918 89.4 935.318 89.85 935.318 90.75C935.318 91.65 933.768 93.25 930.668 95.55C927.568 97.75 923.718 99.75 919.118 101.55C918.418 109.95 915.768 116.75 911.168 121.95C906.568 127.15 900.018 129.75 891.518 129.75C885.318 129.75 880.568 127.3 877.268 122.4C873.968 117.4 872.318 111.6 872.318 105C872.318 98.3 874.268 92 878.168 86.1C882.168 80.2 887.268 77.25 893.468 77.25C896.268 75.25 899.568 74.25 903.368 74.25C907.268 74.25 910.868 76.3 914.168 80.4C917.468 84.5 919.168 89.85 919.268 96.45ZM909.518 104.1L904.118 104.4C899.518 104.4 895.618 103.05 892.418 100.35C889.218 97.55 887.618 94.5 887.618 91.2C887.618 87.9 888.168 85.05 889.268 82.65C884.968 86.05 882.818 92.75 882.818 102.75C882.818 107.55 883.818 112.15 885.818 116.55C887.818 120.85 890.968 123 895.268 123C899.568 123 902.918 121.2 905.318 117.6C907.718 113.9 909.118 109.4 909.518 104.1ZM900.218 79.2C898.618 79.2 897.368 79.95 896.468 81.45C895.568 82.85 895.118 84.4 895.118 86.1C895.118 89.8 896.368 92.8 898.868 95.1C901.468 97.4 904.468 98.55 907.868 98.55H909.668C909.468 93.65 908.618 89.2 907.118 85.2C905.718 81.2 903.418 79.2 900.218 79.2ZM940.007 89.85L948.257 88.95C949.057 88.95 949.757 89.4 950.357 90.3C950.957 91.2 951.257 92.15 951.257 93.15C951.257 94.15 950.907 97.55 950.207 103.35C949.607 109.15 949.307 113.75 949.307 117.15C949.307 120.45 949.607 122.1 950.207 122.1C951.907 122 954.257 119.9 957.257 115.8C960.257 111.6 963.207 106.25 966.107 99.75C969.107 93.25 970.907 90 971.507 90C972.207 90 972.557 90.4 972.557 91.2C972.557 94 971.107 98.45 968.207 104.55C960.307 121.35 953.657 129.75 948.257 129.75C944.357 129.75 941.407 128.95 939.407 127.35C938.707 126.65 938.357 122.3 938.357 114.3C938.357 106.3 939.207 99.45 940.907 93.75C935.107 93.75 931.057 91.9 928.757 88.2C927.557 86.3 926.957 84.15 926.957 81.75C926.957 79.35 927.457 77.25 928.457 75.45C929.457 73.65 930.857 72.75 932.657 72.75C934.557 72.75 936.257 73.75 937.757 75.75C939.357 77.65 940.157 79.8 940.157 82.2C940.157 84.6 939.457 87 938.057 89.4C938.457 89.7 939.107 89.85 940.007 89.85ZM998.789 104.55C990.889 121.35 984.189 129.75 978.689 129.75C973.289 129.75 970.089 129.1 969.089 127.8C968.189 126.5 967.739 122.2 967.739 114.9C967.739 107.6 968.439 97.05 969.839 83.25C964.839 82.25 962.189 80.2 961.889 77.1C961.889 75.5 962.939 74.7 965.039 74.7C967.139 74.7 968.989 75.1 970.589 75.9C971.489 68.7 972.539 61.4 973.739 54C974.039 52.1 974.989 50.3 976.589 48.6C978.189 46.9 979.739 46.05 981.239 46.05C982.539 46.05 983.189 48.1 983.189 52.2C983.189 54.1 982.489 62.85 981.089 78.45C983.789 77.95 986.739 76.95 989.939 75.45C993.239 73.95 995.189 73.2 995.789 73.2C997.589 73.2 998.489 73.75 998.489 74.85C998.589 75.85 996.739 77.25 992.939 79.05C989.139 80.75 985.039 82.05 980.639 82.95C979.439 97.55 978.839 108.6 978.839 116.1C978.839 120.1 979.439 122.1 980.639 122.1C982.439 122 984.839 119.9 987.839 115.8C990.839 111.7 993.789 106.4 996.689 99.9C999.689 93.3 1001.49 90 1002.09 90C1002.79 90 1003.14 90.4 1003.14 91.2C1003.14 94 1001.69 98.45 998.789 104.55Z" fill="#EAEAEA"/>
</svg>
