<svg width="248" height="194" viewBox="0 0 248 194" fill="none" xmlns="http://www.w3.org/2000/svg">
<path d="M105.831 10.6217C117.055 4.06007 130.945 4.06006 142.169 10.6217L174.446 29.4913C177.548 31.3047 180.904 32.6435 184.402 33.4632L220.213 41.8542C236.49 45.6683 248 60.1865 248 76.9048V96.7303V116.556C248 133.274 236.49 147.792 220.213 151.606L184.402 159.997C180.904 160.817 177.548 162.156 174.446 163.969L142.169 182.839C130.945 189.401 117.055 189.401 105.831 182.839L73.5536 163.969C70.4517 162.156 67.0959 160.817 63.5976 159.997L27.7871 151.606C11.5096 147.792 0 133.274 0 116.556V96.7303V76.9048C0 60.1865 11.5096 45.6683 27.7871 41.8542L63.5976 33.4632C67.0959 32.6435 70.4517 31.3047 73.5536 29.4913L105.831 10.6217Z" fill="#0074D9"/>
<path d="M106.18 20.4424C117.227 14.1492 130.773 14.1492 141.82 20.4424L169.93 36.4562C172.994 38.2018 176.298 39.4877 179.736 40.2727L209.723 47.1201C226.097 50.8587 237.71 65.4221 237.71 82.2168V96.7303V111.244C237.71 128.039 226.097 142.602 209.723 146.341L179.736 153.188C176.298 153.973 172.994 155.259 169.93 157.004L141.82 173.018C130.773 179.311 117.227 179.311 106.18 173.018L78.0705 157.004C75.0063 155.259 71.7023 153.973 68.2643 153.188L38.2765 146.341C21.9032 142.602 10.2905 128.039 10.2905 111.244V96.7303V82.2168C10.2905 65.422 21.9032 50.8587 38.2765 47.1201L68.2643 40.2727C71.7023 39.4877 75.0063 38.2018 78.0705 36.4562L106.18 20.4424Z" fill="white"/>
<path d="M106.56 29.2093C117.41 23.2009 130.59 23.2009 141.44 29.2093L165.878 42.742C168.899 44.4151 172.146 45.6447 175.517 46.393L200.249 51.8822C216.724 55.539 228.448 70.1503 228.448 87.0269V96.7303V106.434C228.448 123.31 216.724 137.922 200.249 141.578L175.517 147.068C172.146 147.816 168.899 149.046 165.878 150.719L141.44 164.251C130.59 170.26 117.41 170.26 106.56 164.251L82.1222 150.719C79.1008 149.046 75.8544 147.816 72.4828 147.068L47.7514 141.578C31.2757 137.922 19.5519 123.31 19.5519 106.434V96.7303V87.0269C19.5519 70.1503 31.2758 55.539 47.7515 51.8822L72.4828 46.393C75.8544 45.6447 79.1008 44.4151 82.1222 42.742L106.56 29.2093Z" fill="#0074D9"/>
<path d="M55.6777 82.145C55.6777 82.4136 55.6493 82.5479 55.5923 82.5479C55.5923 82.5479 54.1193 82.5356 51.1733 82.5112C51.1571 83.3006 51.1489 84.5335 51.1489 86.21C51.1489 87.8864 51.153 89.0501 51.1611 89.7012L51.21 96.1709C51.1693 96.2848 51.0879 96.3459 50.9658 96.354L48.3901 96.3174L48.3779 96.3296L47.5723 96.3174H45.3384C44.7362 96.3174 44.2845 96.3215 43.9834 96.3296L43.7759 96.1465C43.7677 96.1383 43.7148 96.0732 43.6172 95.9512C43.6172 95.235 43.6457 93.644 43.7026 91.1782L43.8369 84.6841L43.8125 84.3789C43.7555 83.5732 43.6986 83.0972 43.6416 82.9507C43.5928 82.7961 43.491 82.7147 43.3364 82.7065C43.1818 82.6903 43.0679 82.6821 42.9946 82.6821L42.5063 82.7065L39.479 82.6577C39.3732 82.4461 39.3203 81.9701 39.3203 81.2295L39.3447 80.1553V79.8257C39.3366 78.5236 39.3244 77.8278 39.3081 77.7383C39.3244 77.7383 39.3569 77.7464 39.4058 77.7627L54.9453 77.6284C55.2627 77.6284 55.4621 77.6528 55.5435 77.7017C55.6248 77.7424 55.6655 77.8237 55.6655 77.9458V81.1685L55.6777 82.145ZM62.4282 86.7227C62.4282 86.7308 62.4242 86.7511 62.416 86.7837V86.8203C62.3835 87.1621 62.3672 87.5446 62.3672 87.9678C62.3672 88.391 62.3997 88.8385 62.4648 89.3105C62.5381 89.7826 62.652 90.2546 62.8066 90.7266C62.9694 91.1986 63.2176 91.5811 63.5513 91.874C63.9093 92.1833 64.3081 92.3379 64.7476 92.3379C65.1951 92.3379 65.5695 92.2769 65.8706 92.1548C66.1799 92.0246 66.4362 91.8618 66.6396 91.6665C66.8512 91.4712 67.0343 91.2067 67.189 90.873C67.5796 89.986 67.7749 88.6107 67.7749 86.7471C67.7749 84.8509 67.5552 83.5244 67.1157 82.7676C66.6844 82.0026 66.0293 81.6201 65.1504 81.6201C64.7109 81.6201 64.3244 81.7259 63.9907 81.9375C63.6652 82.1491 63.417 82.3688 63.2461 82.5967C63.0833 82.8245 62.9124 83.3088 62.7334 84.0493C62.5625 84.7899 62.4771 85.4735 62.4771 86.1001L62.4282 86.7227ZM55.4092 86.8203L55.4336 86.5518C55.5312 85.5345 55.6615 84.6353 55.8242 83.854C55.987 83.0646 56.2515 82.3281 56.6177 81.6445C57.4884 80.139 58.701 78.9997 60.2554 78.2266C61.8179 77.4453 63.4984 77.0547 65.2969 77.0547C67.1035 77.0547 68.7433 77.4168 70.2163 78.1411C71.0952 78.5724 71.7829 79.1177 72.2793 79.7769C73.2314 80.965 73.8581 82.0596 74.1592 83.0605C74.4603 84.0615 74.6108 85.2171 74.6108 86.5273C74.6108 89.4408 74.0086 91.6624 72.8042 93.1924L72.2427 93.937C71.4858 94.8159 70.4157 95.4954 69.0322 95.9756C67.6488 96.4476 66.2775 96.6917 64.9185 96.708C62.591 96.708 60.6826 96.2197 59.1934 95.2432C56.6706 93.6074 55.4092 90.7998 55.4092 86.8203ZM93.9468 86.5396L93.9102 89.9697C93.9102 91.0195 93.7393 91.9473 93.3975 92.7529C93.0638 93.5586 92.6203 94.2096 92.0669 94.7061C90.5614 96.0732 88.3356 96.7568 85.3896 96.7568C82.4437 96.7568 80.1528 96.0407 78.5171 94.6084C77.9393 94.112 77.451 93.4691 77.0522 92.6797C76.6616 91.8822 76.4256 90.9829 76.3442 89.9819C76.3849 86.5802 76.4053 83.4349 76.4053 80.5459C76.3646 80.5459 76.3442 80.1187 76.3442 79.2642C76.3442 78.4097 76.3809 77.8807 76.4541 77.6772H76.7104C77.9067 77.6121 79.5384 77.5796 81.6055 77.5796C81.752 77.6121 82.0164 77.6325 82.3989 77.6406C82.7896 77.6488 83.0581 77.661 83.2046 77.6772L83.583 77.7261C83.64 79.3374 83.6766 81.555 83.6929 84.3789L83.6196 89.2861C83.6196 90.9137 84.0916 91.7275 85.0356 91.7275C85.4344 91.7275 85.7681 91.5526 86.0366 91.2026C86.3133 90.8527 86.4598 90.458 86.4761 90.0186L86.5249 89.8965L86.5615 85.7827L86.5737 85.4165C86.5737 83.5285 86.5493 81.7056 86.5005 79.9478L86.4761 79.0566C86.4598 78.6986 86.4517 78.3771 86.4517 78.0923C86.4517 77.8075 86.4964 77.6121 86.5859 77.5063C89.7272 77.5063 92.0954 77.5186 93.6904 77.543C93.7474 77.5999 93.8206 77.6528 93.9102 77.7017H93.8979L94.0322 77.7871C93.9671 79.3252 93.9346 81.3027 93.9346 83.7197V85.8193L93.9468 86.5396ZM101.625 77.6406L105.543 77.604C106.374 77.604 107.126 77.6203 107.802 77.6528C109.617 77.7017 110.996 78.1289 111.94 78.9346C112.892 79.7402 113.368 80.8755 113.368 82.3403C113.368 83.3576 113.071 84.2284 112.477 84.9526C111.883 85.6688 111.016 86.2995 109.877 86.8447C111.684 87.4144 112.778 88.7979 113.161 90.9951C113.25 91.4753 113.319 92.0246 113.368 92.6431C113.425 93.2616 113.47 93.6766 113.502 93.8882L113.625 94.5107C113.755 95.2432 113.869 95.7721 113.966 96.0977L113.917 96.1343C112.534 96.2238 111.269 96.2686 110.121 96.2686C108.982 96.2686 107.973 96.2482 107.094 96.2075H107.021C106.768 96.2075 106.5 95.0072 106.215 92.6064L106.154 92.0815C106.121 91.1864 105.963 90.5841 105.678 90.2749C105.401 89.9657 104.917 89.811 104.225 89.811L104.066 89.8232H103.419V93.5342L103.432 93.9248V96.1587C103.407 96.2401 103.346 96.2889 103.249 96.3052C102.353 96.3377 101.088 96.354 99.4521 96.354C97.8245 96.354 96.7503 96.3581 96.2295 96.3662L96.1562 96.3418L96.1318 96.354C96.1156 96.354 96.0911 96.3418 96.0586 96.3174L96.083 95.2188L96.0708 94.8525L96.1196 89.7866V88.8955L96.1318 87.98L96.144 84.8184L96.1562 84.4033L96.1196 81.6323C96.1196 81.6323 96.1359 80.3343 96.1685 77.7383C96.1685 77.6732 96.4004 77.6406 96.8643 77.6406L97.6455 77.6528H98.3901L99.9404 77.665L101.625 77.6406ZM114.04 96.061L113.979 96.0977V96.0732C113.979 96.0651 113.999 96.061 114.04 96.061ZM113.979 96.0977V96.1099C113.97 96.1099 113.966 96.1058 113.966 96.0977H113.979ZM106.142 81.6201C105.653 81.4085 105.002 81.3027 104.188 81.3027H103.48C103.391 81.4329 103.346 82.1206 103.346 83.3657C103.346 84.6027 103.367 85.4328 103.407 85.856C105.954 85.799 107.228 84.9201 107.228 83.2192C107.228 82.495 106.866 81.9619 106.142 81.6201ZM115.126 94.6938C115.126 93.0418 115.171 91.8944 115.26 91.2515C115.26 87.7114 115.309 84.1429 115.407 80.5459C115.382 80.0332 115.37 79.5164 115.37 78.9956V78.5928C115.338 78.3405 115.321 78.1167 115.321 77.9214C115.321 77.7261 115.342 77.5999 115.382 77.543C117.124 77.6488 118.65 77.7017 119.96 77.7017C121.27 77.7017 122.169 77.6772 122.658 77.6284C122.674 77.6528 122.686 77.722 122.694 77.8359H122.609V82.2549L122.694 92.1914C122.694 92.2646 122.707 92.3257 122.731 92.3745V92.3989C122.755 92.4478 122.768 92.5007 122.768 92.5576L122.865 96.1099C122.825 96.1994 122.751 96.2686 122.646 96.3174H122.23L115.395 96.4272C115.313 96.3866 115.207 96.3255 115.077 96.2441L115.089 96.0366L115.126 94.6938ZM124.904 90.9585L131.361 90.8486C131.524 90.8486 131.658 90.987 131.764 91.2637C131.878 91.5404 131.988 91.7601 132.094 91.9229C132.346 92.3135 132.761 92.5088 133.339 92.5088C133.925 92.5088 134.397 92.3745 134.755 92.106C135.113 91.8293 135.292 91.4753 135.292 91.0439C135.292 90.6126 135.182 90.3197 134.962 90.165C134.743 90.0023 134.503 89.8477 134.242 89.7012C133.982 89.5465 133.595 89.4285 133.083 89.3472C132.578 89.2658 132.301 89.217 132.252 89.2007H132.277L131.581 89.0176C131.133 88.9362 130.759 88.8467 130.458 88.749C128.513 88.2282 127.105 87.5731 126.234 86.7837C125.372 85.9943 124.94 84.9323 124.94 83.5977C124.94 82.6292 125.119 81.7585 125.478 80.9854C125.836 80.2122 126.304 79.5815 126.881 79.0933C128.55 77.6854 130.853 76.9814 133.791 76.9814C136.126 76.9814 137.961 77.4046 139.296 78.251H139.284C140.138 78.8695 140.724 79.4798 141.042 80.082C141.359 80.6761 141.558 81.4126 141.64 82.2915L141.322 82.6089C139.182 82.6903 137.286 82.731 135.634 82.731C135.137 82.731 134.84 82.5845 134.743 82.2915C134.702 82.1694 134.657 82.0474 134.608 81.9253C134.494 81.6323 134.128 81.4858 133.51 81.4858H133.461C132.981 81.4858 132.57 81.5998 132.228 81.8276C131.886 82.0474 131.711 82.263 131.703 82.4746C131.703 82.6862 131.748 82.8612 131.837 82.9995C131.935 83.1379 132.037 83.2477 132.143 83.3291C132.248 83.4105 132.411 83.4959 132.631 83.5854C132.851 83.6668 133.013 83.7238 133.119 83.7563C133.233 83.7808 133.408 83.8255 133.644 83.8906L134.071 84.0005C134.242 84.0493 134.739 84.1714 135.561 84.3667C136.391 84.562 137.082 84.7492 137.636 84.9282V84.916C139.369 85.502 140.549 86.2344 141.176 87.1133C141.811 87.984 142.128 89.0013 142.128 90.165C142.128 93.2656 140.277 95.2757 136.574 96.1953C135.5 96.4639 134.352 96.6551 133.131 96.769C131.634 96.769 130.153 96.5493 128.688 96.1099C127.223 95.6704 126.243 94.9543 125.746 93.9614C125.412 93.4813 125.189 93.0418 125.075 92.6431C124.961 92.2362 124.867 91.6706 124.794 90.9463C124.818 90.9544 124.855 90.9585 124.904 90.9585ZM158.583 82.145C158.583 82.4136 158.555 82.5479 158.498 82.5479C158.498 82.5479 157.025 82.5356 154.079 82.5112C154.062 83.3006 154.054 84.5335 154.054 86.21C154.054 87.8864 154.058 89.0501 154.066 89.7012L154.115 96.1709C154.075 96.2848 153.993 96.3459 153.871 96.354L151.295 96.3174L151.283 96.3296L150.478 96.3174H148.244C147.641 96.3174 147.19 96.3215 146.889 96.3296L146.681 96.1465C146.673 96.1383 146.62 96.0732 146.522 95.9512C146.522 95.235 146.551 93.644 146.608 91.1782L146.742 84.6841L146.718 84.3789C146.661 83.5732 146.604 83.0972 146.547 82.9507C146.498 82.7961 146.396 82.7147 146.242 82.7065C146.087 82.6903 145.973 82.6821 145.9 82.6821L145.412 82.7065L142.384 82.6577C142.278 82.4461 142.226 81.9701 142.226 81.2295L142.25 80.1553V79.8257C142.242 78.5236 142.23 77.8278 142.213 77.7383C142.23 77.7383 142.262 77.7464 142.311 77.7627L157.851 77.6284C158.168 77.6284 158.367 77.6528 158.449 77.7017C158.53 77.7424 158.571 77.8237 158.571 77.9458V81.1685L158.583 82.145ZM159.608 94.6938C159.608 93.0418 159.653 91.8944 159.743 91.2515C159.743 87.7114 159.792 84.1429 159.889 80.5459C159.865 80.0332 159.853 79.5164 159.853 78.9956V78.5928C159.82 78.3405 159.804 78.1167 159.804 77.9214C159.804 77.7261 159.824 77.5999 159.865 77.543C161.606 77.6488 163.132 77.7017 164.442 77.7017C165.753 77.7017 166.652 77.6772 167.14 77.6284C167.156 77.6528 167.169 77.722 167.177 77.8359H167.091V82.2549L167.177 92.1914C167.177 92.2646 167.189 92.3257 167.213 92.3745V92.3989C167.238 92.4478 167.25 92.5007 167.25 92.5576L167.348 96.1099C167.307 96.1994 167.234 96.2686 167.128 96.3174H166.713L159.877 96.4272C159.796 96.3866 159.69 96.3255 159.56 96.2441L159.572 96.0366L159.608 94.6938ZM169.228 86.271C169.423 84.4155 169.748 83.0199 170.204 82.084C171.075 80.2773 172.373 78.9956 174.098 78.2388C175.636 77.5633 177.309 77.2256 179.115 77.2256C182.143 77.2256 184.352 78.0557 185.744 79.7158C186.582 80.7005 187.066 81.9253 187.196 83.3901L187.306 84.5376C187.168 84.6678 186.293 84.7329 184.682 84.7329L182.741 84.7085H182.582L181.52 84.6841L181.227 84.6963H180.983C180.755 84.6963 180.58 84.3626 180.458 83.6953C180.344 83.028 180.165 82.5885 179.921 82.377C179.685 82.1572 179.408 82.0474 179.091 82.0474C178.773 82.0474 178.493 82.1043 178.249 82.2183C178.013 82.3322 177.817 82.4705 177.663 82.6333C177.508 82.7879 177.378 83.0117 177.272 83.3047C177.077 83.8092 176.959 84.3464 176.918 84.916C176.877 85.4775 176.857 86.1082 176.857 86.8081V87.1011L176.808 88.334C176.808 90.5801 177.443 91.7275 178.712 91.7764C179.038 91.7764 179.266 91.7194 179.396 91.6055C179.746 91.2962 180.051 90.6737 180.312 89.7378C180.368 89.5425 180.438 89.3838 180.519 89.2617H180.983L181.544 89.2739H183.522L184.12 89.2617L185.28 89.2739H185.988L186.708 89.2861H187.196C187.294 89.2943 187.363 89.3797 187.404 89.5425L187.367 89.9453C187.294 90.9056 187.07 91.7764 186.696 92.5576C186.004 93.9899 184.914 95.056 183.424 95.7559C181.943 96.4476 180.316 96.7935 178.542 96.7935C175.441 96.7935 173.113 95.8779 171.559 94.0469C170.005 92.2158 169.228 89.6239 169.228 86.271ZM208.339 96.1343C208.331 96.2401 208.107 96.293 207.667 96.293H206.544L205.788 96.3052H205.043L203.859 96.3174C202.679 96.3174 201.698 96.2889 200.917 96.2319C200.893 96.2238 200.864 96.175 200.832 96.0854L200.771 95.8291C200.697 94.9909 200.506 94.1812 200.197 93.3999L194.972 93.4487C194.94 93.5871 194.834 93.998 194.655 94.6816C194.476 95.3652 194.341 95.882 194.252 96.2319C194.171 96.3133 193.784 96.354 193.092 96.354L192.787 96.3418H192.079L188.905 96.415H188.539L188.197 96.4272H187.343C187.286 96.3703 187.225 96.297 187.16 96.2075C187.973 93.3918 189.076 89.9006 190.468 85.7339L190.749 84.8672H190.736L191.066 83.854C191.172 83.5285 191.473 82.6252 191.969 81.144C192.474 79.6629 192.787 78.7067 192.909 78.2754C193.039 77.8441 193.117 77.6203 193.141 77.604H195.167L199.501 77.543L200.673 77.604L201.637 77.543C202.125 77.543 202.37 77.6406 202.37 77.8359C203.183 80.1064 204.27 83.3739 205.629 87.6382C206.988 91.9025 207.753 94.2992 207.924 94.8281L208.095 95.4385C208.152 95.6582 208.233 95.8901 208.339 96.1343ZM196.254 89.4692L196.754 89.4814L199.672 89.4692C199.55 88.5008 199.456 87.7887 199.391 87.333L198.927 85.2456C198.439 83.089 198.187 81.9904 198.17 81.9497C198.154 81.909 198.138 81.8724 198.122 81.8398C198.113 81.7992 198.105 81.7747 198.097 81.7666C198.089 81.7503 198.077 81.7259 198.061 81.6934C198.052 81.6608 198.04 81.6405 198.024 81.6323C198.016 81.616 198.004 81.5957 197.987 81.5713C197.93 81.4736 197.812 81.3882 197.633 81.3149C197.414 81.3638 196.758 83.8133 195.668 88.6636L195.534 89.4692H196.254Z" fill="white"/>
<path d="M51.2732 122.24C51.6332 120.893 51.9932 119.607 52.3532 118.38C52.7265 117.14 53.1132 115.94 53.5132 114.78C53.9132 113.62 54.3399 112.48 54.7932 111.36C55.2599 110.24 55.7599 109.12 56.2932 108L58.7932 107.76C59.3265 108.867 59.8199 109.973 60.2732 111.08C60.7265 112.187 61.1532 113.327 61.5532 114.5C61.9665 115.66 62.3532 116.86 62.7132 118.1C63.0865 119.34 63.4532 120.64 63.8132 122L61.0932 122.24C60.9065 121.533 60.7199 120.827 60.5332 120.12C60.3465 119.4 60.1599 118.68 59.9732 117.96H55.0332C54.8465 118.613 54.6665 119.273 54.4932 119.94C54.3199 120.607 54.1599 121.293 54.0132 122L51.2732 122.24ZM57.5532 110.26C56.7799 112.153 56.1065 114.107 55.5332 116.12H59.4732C59.1799 115.12 58.8732 114.127 58.5532 113.14C58.2465 112.153 57.9132 111.193 57.5532 110.26ZM72.1424 122.24C71.7691 121.893 71.4691 121.593 71.2424 121.34C71.0158 121.073 70.8424 120.807 70.7224 120.54C70.5224 120.74 70.3091 120.94 70.0824 121.14C69.8558 121.34 69.6091 121.527 69.3424 121.7C69.0758 121.86 68.7958 121.987 68.5024 122.08C68.2091 122.187 67.8958 122.24 67.5624 122.24C67.2024 122.24 66.8491 122.18 66.5024 122.06C66.1558 121.94 65.8491 121.72 65.5824 121.4C65.3158 121.08 65.0958 120.647 64.9224 120.1C64.7624 119.553 64.6824 118.853 64.6824 118C64.6824 116.96 64.7891 116.053 65.0024 115.28C65.2291 114.493 65.5424 113.84 65.9424 113.32C66.3424 112.8 66.8158 112.413 67.3624 112.16C67.9224 111.893 68.5358 111.76 69.2024 111.76C69.6158 111.76 70.0024 111.86 70.3624 112.06C70.3491 110.98 70.3358 110.027 70.3224 109.2C70.3224 108.373 70.3091 107.58 70.2824 106.82L73.0024 106.6C72.9224 108.227 72.8758 109.94 72.8624 111.74C72.8491 113.527 72.8424 115.313 72.8424 117.1C72.8424 117.62 72.8558 118.047 72.8824 118.38C72.9091 118.7 72.9624 118.987 73.0424 119.24C73.1224 119.48 73.2291 119.707 73.3624 119.92C73.4958 120.12 73.6691 120.353 73.8824 120.62L72.1424 122.24ZM68.9624 119.94C69.2558 119.94 69.5224 119.893 69.7624 119.8C70.0024 119.693 70.2224 119.56 70.4224 119.4C70.3958 119.147 70.3758 118.86 70.3624 118.54C70.3624 118.22 70.3624 117.847 70.3624 117.42V113.74C70.0558 113.353 69.6424 113.16 69.1224 113.16C68.5358 113.16 68.0824 113.513 67.7624 114.22C67.4558 114.927 67.3024 115.973 67.3024 117.36C67.3024 117.907 67.3424 118.347 67.4224 118.68C67.5024 119.013 67.6158 119.273 67.7624 119.46C67.9091 119.647 68.0824 119.773 68.2824 119.84C68.4824 119.907 68.7091 119.94 68.9624 119.94ZM84.0968 111.76C83.5901 113.653 83.0368 115.427 82.4368 117.08C81.8368 118.72 81.1701 120.36 80.4368 122L78.0168 122.24C77.3235 120.6 76.6901 118.96 76.1168 117.32C75.5568 115.667 75.0368 113.893 74.5568 112L77.1368 111.76C77.4168 113.133 77.7235 114.487 78.0568 115.82C78.4035 117.153 78.7901 118.46 79.2168 119.74C79.6835 118.473 80.1035 117.213 80.4768 115.96C80.8635 114.693 81.2101 113.373 81.5168 112L84.0968 111.76ZM87.3996 117.48C87.4663 118.493 87.6729 119.207 88.0196 119.62C88.3663 120.02 88.8929 120.22 89.5996 120.22C90.1329 120.22 90.6329 120.14 91.0996 119.98C91.5796 119.82 91.9729 119.673 92.2796 119.54V121.2C91.8529 121.587 91.3196 121.853 90.6796 122C90.0396 122.16 89.4196 122.24 88.8196 122.24C88.3263 122.24 87.8396 122.18 87.3596 122.06C86.8796 121.94 86.4463 121.713 86.0596 121.38C85.6863 121.033 85.3796 120.56 85.1396 119.96C84.9129 119.347 84.7996 118.547 84.7996 117.56C84.7996 116.587 84.9196 115.74 85.1596 115.02C85.3996 114.287 85.7263 113.68 86.1396 113.2C86.5663 112.72 87.0596 112.36 87.6196 112.12C88.1929 111.88 88.8129 111.76 89.4796 111.76C90.1596 111.76 90.7129 111.88 91.1396 112.12C91.5796 112.347 91.9196 112.64 92.1596 113C92.4129 113.36 92.5796 113.76 92.6596 114.2C92.7529 114.64 92.7996 115.067 92.7996 115.48C92.7996 115.907 92.7663 116.293 92.6996 116.64C92.6463 116.987 92.5729 117.267 92.4796 117.48H87.3996ZM89.1196 113.22C88.5996 113.22 88.1929 113.447 87.8996 113.9C87.6196 114.34 87.4529 115.04 87.3996 116H90.6996C90.6996 115.947 90.6996 115.88 90.6996 115.8C90.7129 115.72 90.7196 115.647 90.7196 115.58C90.7196 115.367 90.6996 115.127 90.6596 114.86C90.6196 114.58 90.5396 114.32 90.4196 114.08C90.2996 113.84 90.1329 113.64 89.9196 113.48C89.7196 113.307 89.4529 113.22 89.1196 113.22ZM96.176 111.76C96.4427 112.147 96.656 112.487 96.816 112.78C96.976 113.073 97.096 113.373 97.176 113.68C97.376 113.467 97.6027 113.247 97.856 113.02C98.1093 112.78 98.376 112.573 98.656 112.4C98.9493 112.213 99.2627 112.06 99.596 111.94C99.9293 111.82 100.276 111.76 100.636 111.76C100.969 111.76 101.289 111.82 101.596 111.94C101.916 112.06 102.196 112.26 102.436 112.54C102.676 112.82 102.869 113.2 103.016 113.68C103.163 114.16 103.236 114.76 103.236 115.48C103.236 115.667 103.229 115.94 103.216 116.3C103.216 116.66 103.209 117.047 103.196 117.46C103.183 117.86 103.169 118.247 103.156 118.62C103.156 118.993 103.156 119.28 103.156 119.48C103.156 119.92 103.183 120.347 103.236 120.76C103.303 121.16 103.409 121.493 103.556 121.76L100.776 122.24C100.683 121.933 100.623 121.6 100.596 121.24C100.583 120.88 100.576 120.567 100.576 120.3C100.576 119.927 100.583 119.547 100.596 119.16C100.623 118.76 100.643 118.38 100.656 118.02C100.683 117.647 100.703 117.3 100.716 116.98C100.743 116.647 100.756 116.36 100.756 116.12C100.756 115.333 100.623 114.793 100.356 114.5C100.089 114.207 99.7227 114.06 99.256 114.06C98.8693 114.06 98.5093 114.12 98.176 114.24C97.856 114.36 97.5693 114.507 97.316 114.68C97.3427 114.933 97.356 115.213 97.356 115.52C97.356 115.827 97.356 116.18 97.356 116.58C97.356 117.193 97.356 117.747 97.356 118.24C97.356 118.733 97.356 119.193 97.356 119.62C97.3693 120.047 97.376 120.453 97.376 120.84C97.3893 121.213 97.4027 121.6 97.416 122H94.716C94.7293 121.68 94.7427 121.32 94.756 120.92C94.7693 120.52 94.7827 120.1 94.796 119.66C94.8227 119.207 94.8427 118.747 94.856 118.28C94.8693 117.8 94.876 117.34 94.876 116.9C94.876 116.38 94.8627 115.96 94.836 115.64C94.8093 115.307 94.756 115.02 94.676 114.78C94.596 114.527 94.4893 114.3 94.356 114.1C94.2227 113.887 94.0493 113.647 93.836 113.38L96.176 111.76ZM104.654 112.16C105.094 112.133 105.454 112.06 105.734 111.94C106.014 111.807 106.24 111.62 106.414 111.38C106.6 111.127 106.754 110.8 106.874 110.4C106.994 110 107.114 109.52 107.234 108.96L109.094 108.42C108.974 109.153 108.88 109.8 108.814 110.36C108.747 110.92 108.687 111.467 108.634 112H110.794L110.614 113.7L108.534 113.56C108.48 114.36 108.44 115.1 108.414 115.78C108.4 116.447 108.394 117.02 108.394 117.5C108.394 118.047 108.407 118.487 108.434 118.82C108.474 119.14 108.527 119.393 108.594 119.58C108.674 119.753 108.774 119.873 108.894 119.94C109.027 119.993 109.194 120.02 109.394 120.02C109.66 120.02 109.92 119.987 110.174 119.92C110.427 119.84 110.64 119.747 110.814 119.64L110.514 121.72C110.194 121.893 109.894 122.02 109.614 122.1C109.334 122.193 109 122.24 108.614 122.24C108.174 122.24 107.787 122.173 107.454 122.04C107.12 121.907 106.84 121.687 106.614 121.38C106.4 121.06 106.24 120.653 106.134 120.16C106.027 119.653 105.974 119.04 105.974 118.32C105.974 117.72 106 116.987 106.054 116.12C106.12 115.253 106.187 114.353 106.254 113.42H104.794L104.654 112.16ZM119.208 122.24C118.941 121.853 118.728 121.52 118.568 121.24C118.408 120.96 118.288 120.667 118.208 120.36C118.008 120.587 117.795 120.813 117.568 121.04C117.341 121.253 117.088 121.453 116.808 121.64C116.541 121.813 116.255 121.953 115.948 122.06C115.641 122.18 115.308 122.24 114.948 122.24C114.615 122.24 114.288 122.18 113.968 122.06C113.661 121.94 113.388 121.74 113.148 121.46C112.908 121.18 112.715 120.8 112.568 120.32C112.421 119.84 112.348 119.24 112.348 118.52C112.348 118.347 112.348 118.08 112.348 117.72C112.361 117.347 112.375 116.96 112.388 116.56C112.401 116.147 112.408 115.753 112.408 115.38C112.421 115.007 112.428 114.72 112.428 114.52C112.428 114.08 112.395 113.66 112.328 113.26C112.275 112.847 112.175 112.507 112.028 112.24L114.768 111.76C114.861 112.067 114.915 112.4 114.928 112.76C114.955 113.12 114.968 113.433 114.968 113.7C114.968 114.087 114.955 114.473 114.928 114.86C114.915 115.247 114.895 115.627 114.868 116C114.855 116.36 114.835 116.707 114.808 117.04C114.795 117.36 114.788 117.64 114.788 117.88C114.788 118.667 114.921 119.207 115.188 119.5C115.455 119.793 115.821 119.94 116.288 119.94C116.675 119.94 117.008 119.873 117.288 119.74C117.568 119.607 117.821 119.447 118.048 119.26C118.035 119.02 118.028 118.753 118.028 118.46C118.028 118.153 118.028 117.807 118.028 117.42C118.028 116.807 118.028 116.253 118.028 115.76C118.028 115.267 118.021 114.807 118.008 114.38C118.008 113.953 118.001 113.553 117.988 113.18C117.988 112.793 117.981 112.4 117.968 112H120.668C120.655 112.32 120.641 112.68 120.628 113.08C120.615 113.48 120.595 113.907 120.568 114.36C120.555 114.8 120.541 115.26 120.528 115.74C120.515 116.207 120.508 116.66 120.508 117.1C120.508 117.62 120.521 118.047 120.548 118.38C120.575 118.7 120.628 118.987 120.708 119.24C120.788 119.48 120.895 119.707 121.028 119.92C121.161 120.12 121.335 120.353 121.548 120.62L119.208 122.24ZM124.692 111.64C124.972 112.08 125.192 112.467 125.352 112.8C125.512 113.12 125.625 113.46 125.692 113.82C125.825 113.62 125.992 113.407 126.192 113.18C126.392 112.94 126.618 112.72 126.872 112.52C127.125 112.307 127.405 112.12 127.712 111.96C128.018 111.8 128.345 111.693 128.692 111.64L128.872 114.48C128.218 114.48 127.612 114.54 127.052 114.66C126.492 114.767 126.092 114.953 125.852 115.22C125.865 115.473 125.872 115.753 125.872 116.06C125.872 116.353 125.872 116.687 125.872 117.06C125.872 117.487 125.878 117.947 125.892 118.44C125.905 118.92 125.918 119.387 125.932 119.84C125.958 120.28 125.985 120.693 126.012 121.08C126.038 121.467 126.065 121.773 126.092 122H123.272C123.285 121.72 123.298 121.393 123.312 121.02C123.325 120.647 123.338 120.26 123.352 119.86C123.365 119.46 123.372 119.053 123.372 118.64C123.385 118.213 123.392 117.807 123.392 117.42C123.392 116.807 123.378 116.307 123.352 115.92C123.325 115.52 123.272 115.18 123.192 114.9C123.112 114.607 123.005 114.34 122.872 114.1C122.738 113.86 122.565 113.58 122.352 113.26L124.692 111.64ZM132.4 117.48C132.466 118.493 132.673 119.207 133.02 119.62C133.366 120.02 133.893 120.22 134.6 120.22C135.133 120.22 135.633 120.14 136.1 119.98C136.58 119.82 136.973 119.673 137.28 119.54V121.2C136.853 121.587 136.32 121.853 135.68 122C135.04 122.16 134.42 122.24 133.82 122.24C133.326 122.24 132.84 122.18 132.36 122.06C131.88 121.94 131.446 121.713 131.06 121.38C130.686 121.033 130.38 120.56 130.14 119.96C129.913 119.347 129.8 118.547 129.8 117.56C129.8 116.587 129.92 115.74 130.16 115.02C130.4 114.287 130.726 113.68 131.14 113.2C131.566 112.72 132.06 112.36 132.62 112.12C133.193 111.88 133.813 111.76 134.48 111.76C135.16 111.76 135.713 111.88 136.14 112.12C136.58 112.347 136.92 112.64 137.16 113C137.413 113.36 137.58 113.76 137.66 114.2C137.753 114.64 137.8 115.067 137.8 115.48C137.8 115.907 137.766 116.293 137.7 116.64C137.646 116.987 137.573 117.267 137.48 117.48H132.4ZM134.12 113.22C133.6 113.22 133.193 113.447 132.9 113.9C132.62 114.34 132.453 115.04 132.4 116H135.7C135.7 115.947 135.7 115.88 135.7 115.8C135.713 115.72 135.72 115.647 135.72 115.58C135.72 115.367 135.7 115.127 135.66 114.86C135.62 114.58 135.54 114.32 135.42 114.08C135.3 113.84 135.133 113.64 134.92 113.48C134.72 113.307 134.453 113.22 134.12 113.22ZM142.661 112.16C143.101 112.133 143.461 112.06 143.741 111.94C144.021 111.807 144.248 111.62 144.421 111.38C144.608 111.127 144.761 110.8 144.881 110.4C145.001 110 145.121 109.52 145.241 108.96L147.101 108.42C146.981 109.153 146.888 109.8 146.821 110.36C146.755 110.92 146.695 111.467 146.641 112H148.801L148.621 113.7L146.541 113.56C146.488 114.36 146.448 115.1 146.421 115.78C146.408 116.447 146.401 117.02 146.401 117.5C146.401 118.047 146.415 118.487 146.441 118.82C146.481 119.14 146.535 119.393 146.601 119.58C146.681 119.753 146.781 119.873 146.901 119.94C147.035 119.993 147.201 120.02 147.401 120.02C147.668 120.02 147.928 119.987 148.181 119.92C148.435 119.84 148.648 119.747 148.821 119.64L148.521 121.72C148.201 121.893 147.901 122.02 147.621 122.1C147.341 122.193 147.008 122.24 146.621 122.24C146.181 122.24 145.795 122.173 145.461 122.04C145.128 121.907 144.848 121.687 144.621 121.38C144.408 121.06 144.248 120.653 144.141 120.16C144.035 119.653 143.981 119.04 143.981 118.32C143.981 117.72 144.008 116.987 144.061 116.12C144.128 115.253 144.195 114.353 144.261 113.42H142.801L142.661 112.16ZM152.016 111.64C152.296 112.08 152.516 112.467 152.676 112.8C152.836 113.12 152.949 113.46 153.016 113.82C153.149 113.62 153.316 113.407 153.516 113.18C153.716 112.94 153.943 112.72 154.196 112.52C154.449 112.307 154.729 112.12 155.036 111.96C155.343 111.8 155.669 111.693 156.016 111.64L156.196 114.48C155.543 114.48 154.936 114.54 154.376 114.66C153.816 114.767 153.416 114.953 153.176 115.22C153.189 115.473 153.196 115.753 153.196 116.06C153.196 116.353 153.196 116.687 153.196 117.06C153.196 117.487 153.203 117.947 153.216 118.44C153.229 118.92 153.243 119.387 153.256 119.84C153.283 120.28 153.309 120.693 153.336 121.08C153.363 121.467 153.389 121.773 153.416 122H150.596C150.609 121.72 150.623 121.393 150.636 121.02C150.649 120.647 150.663 120.26 150.676 119.86C150.689 119.46 150.696 119.053 150.696 118.64C150.709 118.213 150.716 117.807 150.716 117.42C150.716 116.807 150.703 116.307 150.676 115.92C150.649 115.52 150.596 115.18 150.516 114.9C150.436 114.607 150.329 114.34 150.196 114.1C150.063 113.86 149.889 113.58 149.676 113.26L152.016 111.64ZM159.685 122.24C158.845 122.24 158.165 121.953 157.645 121.38C157.138 120.807 156.885 120.06 156.885 119.14C156.885 118.18 157.165 117.413 157.725 116.84C158.285 116.267 159.031 115.98 159.965 115.98C160.351 115.98 160.738 116.033 161.125 116.14C161.511 116.247 161.858 116.4 162.165 116.6V115.48C162.165 114.853 162.045 114.413 161.805 114.16C161.565 113.907 161.151 113.78 160.565 113.78C160.165 113.78 159.738 113.833 159.285 113.94C158.845 114.033 158.491 114.153 158.225 114.3L157.605 112.38C157.805 112.3 158.045 112.22 158.325 112.14C158.605 112.06 158.905 111.993 159.225 111.94C159.545 111.887 159.871 111.847 160.205 111.82C160.538 111.78 160.845 111.76 161.125 111.76C163.471 111.76 164.645 112.907 164.645 115.2C164.645 115.4 164.631 115.693 164.605 116.08C164.591 116.467 164.571 116.873 164.545 117.3C164.531 117.713 164.511 118.1 164.485 118.46C164.471 118.82 164.465 119.073 164.465 119.22C164.465 119.527 164.511 119.747 164.605 119.88C164.698 120.013 164.871 120.08 165.125 120.08C165.298 120.08 165.498 120.053 165.725 120L165.405 121.92C165.191 121.987 164.991 122.04 164.805 122.08C164.631 122.12 164.451 122.14 164.265 122.14C163.771 122.14 163.358 122.007 163.025 121.74C162.691 121.46 162.491 121.067 162.425 120.56C162.158 121.08 161.785 121.493 161.305 121.8C160.825 122.093 160.285 122.24 159.685 122.24ZM160.645 120.4C161.071 120.4 161.431 120.247 161.725 119.94C162.031 119.633 162.185 119.247 162.185 118.78C162.185 118.38 162.065 118.06 161.825 117.82C161.585 117.58 161.251 117.46 160.825 117.46C160.385 117.46 160.038 117.593 159.785 117.86C159.531 118.127 159.405 118.493 159.405 118.96C159.405 119.4 159.511 119.753 159.725 120.02C159.951 120.273 160.258 120.4 160.645 120.4ZM175.679 111.76C175.172 113.653 174.619 115.427 174.019 117.08C173.419 118.72 172.752 120.36 172.019 122L169.599 122.24C168.905 120.6 168.272 118.96 167.699 117.32C167.139 115.667 166.619 113.893 166.139 112L168.719 111.76C168.999 113.133 169.305 114.487 169.639 115.82C169.985 117.153 170.372 118.46 170.799 119.74C171.265 118.473 171.685 117.213 172.059 115.96C172.445 114.693 172.792 113.373 173.099 112L175.679 111.76ZM178.982 117.48C179.048 118.493 179.255 119.207 179.602 119.62C179.948 120.02 180.475 120.22 181.182 120.22C181.715 120.22 182.215 120.14 182.682 119.98C183.162 119.82 183.555 119.673 183.862 119.54V121.2C183.435 121.587 182.902 121.853 182.262 122C181.622 122.16 181.002 122.24 180.402 122.24C179.908 122.24 179.422 122.18 178.942 122.06C178.462 121.94 178.028 121.713 177.642 121.38C177.268 121.033 176.962 120.56 176.722 119.96C176.495 119.347 176.382 118.547 176.382 117.56C176.382 116.587 176.502 115.74 176.742 115.02C176.982 114.287 177.308 113.68 177.722 113.2C178.148 112.72 178.642 112.36 179.202 112.12C179.775 111.88 180.395 111.76 181.062 111.76C181.742 111.76 182.295 111.88 182.722 112.12C183.162 112.347 183.502 112.64 183.742 113C183.995 113.36 184.162 113.76 184.242 114.2C184.335 114.64 184.382 115.067 184.382 115.48C184.382 115.907 184.348 116.293 184.282 116.64C184.228 116.987 184.155 117.267 184.062 117.48H178.982ZM180.702 113.22C180.182 113.22 179.775 113.447 179.482 113.9C179.202 114.34 179.035 115.04 178.982 116H182.282C182.282 115.947 182.282 115.88 182.282 115.8C182.295 115.72 182.302 115.647 182.302 115.58C182.302 115.367 182.282 115.127 182.242 114.86C182.202 114.58 182.122 114.32 182.002 114.08C181.882 113.84 181.715 113.64 181.502 113.48C181.302 113.307 181.035 113.22 180.702 113.22ZM188.938 106.6C188.898 107.067 188.865 107.547 188.838 108.04C188.825 108.533 188.811 109.08 188.798 109.68C188.798 110.267 188.791 110.927 188.778 111.66C188.778 112.393 188.778 113.233 188.778 114.18C188.778 115.06 188.778 115.86 188.778 116.58C188.778 117.287 188.778 117.947 188.778 118.56C188.791 119.173 188.798 119.76 188.798 120.32C188.811 120.867 188.825 121.427 188.838 122H186.138C186.151 121.307 186.165 120.693 186.178 120.16C186.205 119.627 186.225 119.073 186.238 118.5C186.251 117.913 186.265 117.253 186.278 116.52C186.291 115.773 186.298 114.84 186.298 113.72C186.298 112.587 186.291 111.453 186.278 110.32C186.265 109.173 186.238 108 186.198 106.8L188.938 106.6ZM194.137 120.12C194.51 120.12 194.777 120.047 194.937 119.9C195.097 119.753 195.177 119.547 195.177 119.28C195.177 119.107 195.144 118.96 195.077 118.84C195.024 118.72 194.93 118.613 194.797 118.52C194.677 118.427 194.517 118.34 194.317 118.26C194.117 118.167 193.877 118.067 193.597 117.96C193.277 117.84 192.95 117.707 192.617 117.56C192.297 117.413 192.004 117.227 191.737 117C191.484 116.773 191.277 116.48 191.117 116.12C190.957 115.76 190.877 115.307 190.877 114.76C190.877 114.12 190.997 113.607 191.237 113.22C191.49 112.82 191.797 112.513 192.157 112.3C192.517 112.087 192.904 111.947 193.317 111.88C193.73 111.8 194.11 111.76 194.457 111.76C194.844 111.76 195.264 111.793 195.717 111.86C196.17 111.927 196.55 112.02 196.857 112.14V114.26C196.63 114.18 196.39 114.113 196.137 114.06C195.884 113.993 195.637 113.94 195.397 113.9C195.157 113.86 194.93 113.833 194.717 113.82C194.504 113.793 194.33 113.78 194.197 113.78C193.344 113.78 192.917 114.073 192.917 114.66C192.917 115.073 193.104 115.387 193.477 115.6C193.85 115.8 194.31 116 194.857 116.2C195.19 116.32 195.504 116.46 195.797 116.62C196.09 116.767 196.344 116.96 196.557 117.2C196.784 117.427 196.957 117.713 197.077 118.06C197.21 118.407 197.277 118.827 197.277 119.32C197.277 120.333 196.997 121.073 196.437 121.54C195.877 122.007 195.15 122.24 194.257 122.24C193.777 122.24 193.25 122.173 192.677 122.04C192.104 121.907 191.537 121.7 190.977 121.42L190.897 119.16C191.07 119.28 191.29 119.4 191.557 119.52C191.824 119.627 192.11 119.727 192.417 119.82C192.724 119.9 193.024 119.973 193.317 120.04C193.624 120.093 193.897 120.12 194.137 120.12Z" fill="white"/>
</svg>
